<?xml version="1.0" encoding="UTF-8"?>
<svg width="26px" height="26px" viewBox="0 0 26 26" version="1.1" xmlns="http://www.w3.org/2000/svg" xmlns:xlink="http://www.w3.org/1999/xlink">
    <!-- Generator: sketchtool 53.2 (72643) - https://sketchapp.com -->
    <title>E5FBFF16-517F-4351-92D6-453080B4F347</title>
    <desc>Created with sketchtool.</desc>
    <defs>
        <rect id="path-1" x="0" y="0" width="30" height="30"></rect>
        <rect id="path-3" x="0" y="0" width="30" height="30"></rect>
    </defs>
    <g id="design_zhilaya_pravki" stroke="none" stroke-width="1" fill="none" fill-rule="evenodd">
        <g id="состояния" transform="translate(-90.000000, -1749.000000)">
            <g id="ic_1_activ" transform="translate(90.000000, 1749.000000)">
                <g id="refrash">
                    <mask id="mask-2" fill="white">
                        <use xlink:href="#path-1"></use>
                    </mask>
                    <g id="Mask"></g>
                </g>
                <g id="Oval">
                    <mask id="mask-4" fill="white">
                        <use xlink:href="#path-3"></use>
                    </mask>
                    <g id="Mask"></g>
                    <circle fill="#6666FF" opacity="0.200000003" mask="url(#mask-4)" cx="12" cy="12" r="12"></circle>
                    <g id="optimised-(4)" mask="url(#mask-4)" fill="#000000">
                        <g transform="translate(4.000000, 4.000000)">
                            <path d="M6.28125,0.28125 L3,3.5625 L1.71875,2.28125 L0.28125,3.71875 L2.28125,5.71875 L3,6.40625 L3.71875,5.71875 L7.71875,1.71875 L6.28125,0.28125 Z M10,2 L10,4 L22,4 L22,2 L10,2 Z M6.28125,8.28125 L3,11.5625 L1.71875,10.28125 L0.28125,11.71875 L2.28125,13.71875 L3,14.40625 L3.71875,13.71875 L7.71875,9.71875 L6.28125,8.28125 Z M10,10 L10,12 L22,12 L22,10 L10,10 Z M10,18 L10,20 L22,20 L22,18 L10,18 Z" id="Shape" fill-rule="nonzero"></path>
                            <path d="M4,16 C5.6450096,16 7,17.35499 7,19 C7,20.64501 5.6450096,22 4,22 C2.3549904,22 1,20.64501 1,19 C1,17.35499 2.3549904,16 4,16 Z M4,18 C3.4358706,18 3,18.435871 3,19 C3,19.564129 3.4358706,20 4,20 C4.5641294,20 5,19.564129 5,19 C5,18.435871 4.5641294,18 4,18 Z" id="Combined-Shape" fill-rule="evenodd"></path>
                        </g>
                    </g>
                </g>
            </g>
        </g>
    </g>
</svg>