<?xml version="1.0" encoding="UTF-8"?>
<svg width="20px" height="22px" viewBox="0 0 20 22" version="1.1" xmlns="http://www.w3.org/2000/svg" xmlns:xlink="http://www.w3.org/1999/xlink">
    <!-- Generator: sketchtool 53.2 (72643) - https://sketchapp.com -->
    <title>4BC7CFC7-ADE6-47DB-B458-0EAB329DB05F</title>
    <desc>Created with sketchtool.</desc>
    <defs>
        <rect id="path-1" x="0" y="0" width="30" height="30"></rect>
        <rect id="path-3" x="0" y="0" width="30" height="30"></rect>
    </defs>
    <g id="design_zhilaya_pravki" stroke="none" stroke-width="1" fill="none" fill-rule="evenodd">
        <g id="состояния" transform="translate(-45.000000, -2248.000000)">
            <g id="ic_10" transform="translate(40.000000, 2244.000000)">
                <g id="refrash">
                    <mask id="mask-2" fill="white">
                        <use xlink:href="#path-1"></use>
                    </mask>
                    <g id="Mask"></g>
                </g>
                <g id="Oval">
                    <mask id="mask-4" fill="white">
                        <use xlink:href="#path-3"></use>
                    </mask>
                    <g id="Mask"></g>
                </g>
                <g id="optimised-(3)" opacity="0.200000003" transform="translate(5.000000, 4.000000)">
                    <path d="M5.81243809,2.36137633 C3.99253671,3.34839644 2.89002974,3.71571245 1.00013386,3.72700312 C1.01750305,9.60211745 2.72414005,14.1011513 5.52403243,17.3235132 C5.6010155,17.412112 5.67873794,17.4995296 5.75717501,17.5857733 C6.70990537,18.6333262 7.7294832,19.4711853 8.74557297,20.1180274 C9.09755768,20.3421007 9.42221497,20.5256554 9.71050073,20.6710478 C9.84430275,20.7385287 9.94256748,20.7842373 10.0009347,20.8096501 C10.0590434,20.7845071 10.1553251,20.7401169 10.285311,20.675268 C10.5726318,20.5319258 10.8962304,20.3507351 11.2470843,20.1293014 C12.2599752,19.4900377 13.2763589,18.6604069 14.2261078,17.6214273 C14.3103723,17.529246 14.3938084,17.4357027 14.4768041,17.3403071 C17.2759086,14.1271339 18.9825616,9.62380468 18.9998671,3.72700061 C17.1128951,3.71562215 16.0111605,3.34599884 14.182889,2.35305778 C14.2564391,2.39288862 13.7776947,2.13281124 13.6544577,2.0668213 C12.2511864,1.31540892 11.2952086,1 10,1 C8.70481615,1 7.74897729,1.31597818 6.35515328,2.06588527 C6.24678311,2.12419074 5.83692932,2.34790292 5.81243809,2.36137633 Z" id="Shape" stroke="#000000" stroke-width="2"></path>
                    <path d="M10,5.45454545 C8.49431818,5.45454545 7.27272727,6.67613636 7.27272727,8.18181818 C7.27272727,9.24715909 7.89772727,10.2166191 8.86718727,10.65696 L8.18181818,15.4545455 L11.8181818,15.4545455 L11.1328127,10.65696 C12.1022727,10.2166191 12.7272727,9.24715909 12.7272727,8.18181818 C12.7272727,6.67613636 11.5056818,5.45454545 10,5.45454545 Z" id="Path" fill="#080808"></path>
                </g>
            </g>
        </g>
    </g>
</svg>