<?xml version="1.0" encoding="UTF-8"?>
<svg width="27px" height="25px" viewBox="0 0 27 25" version="1.1" xmlns="http://www.w3.org/2000/svg" xmlns:xlink="http://www.w3.org/1999/xlink">
    <!-- Generator: sketchtool 53.2 (72643) - https://sketchapp.com -->
    <title>6682BCC5-457C-4E2C-9591-0E5421AE6F72</title>
    <desc>Created with sketchtool.</desc>
    <defs>
        <rect id="path-1" x="0" y="0" width="30" height="30"></rect>
        <rect id="path-3" x="0" y="0" width="30" height="30"></rect>
    </defs>
    <g id="design_zhilaya_pravki" stroke="none" stroke-width="1" fill="none" fill-rule="evenodd">
        <g id="состояния" transform="translate(-90.000000, -1859.000000)">
            <g id="ic_3_activ" transform="translate(90.000000, 1859.000000)">
                <g id="refrash">
                    <mask id="mask-2" fill="white">
                        <use xlink:href="#path-1"></use>
                    </mask>
                    <g id="Mask"></g>
                </g>
                <g id="Oval">
                    <mask id="mask-4" fill="white">
                        <use xlink:href="#path-3"></use>
                    </mask>
                    <g id="Mask"></g>
                    <circle fill="#6666FF" opacity="0.200000003" mask="url(#mask-4)" cx="12" cy="12" r="12"></circle>
                    <g id="Group" mask="url(#mask-4)" fill="#000000" fill-rule="nonzero">
                        <g transform="translate(3.000000, 5.000000)">
                            <path d="M6,6 L6,18 L22,18 L22,6 L6,6 Z M6,4 L22,4 C23.1045695,4 24,4.8954305 24,6 L24,18 C24,19.1045695 23.1045695,20 22,20 L6,20 C4.8954305,20 4,19.1045695 4,18 L4,6 C4,4.8954305 4.8954305,4 6,4 Z" id="Rectangle"></path>
                            <path d="M2,14 L2,16 C0.8954305,16 0,15.1045695 0,14 L0,2 C0,0.8954305 0.8954305,0 2,0 L18,0 C19.1045695,0 20,0.8954305 20,2 L18,2 L2,2 L2,14 Z" id="Combined-Shape"></path>
                        </g>
                    </g>
                </g>
            </g>
        </g>
    </g>
</svg>