<?xml version="1.0" encoding="UTF-8"?>
<svg width="27px" height="27px" viewBox="0 0 27 27" version="1.1" xmlns="http://www.w3.org/2000/svg" xmlns:xlink="http://www.w3.org/1999/xlink">
    <!-- Generator: sketchtool 53.2 (72643) - https://sketchapp.com -->
    <title>8D61D94B-9B64-4841-A170-F2284097C0DA</title>
    <desc>Created with sketchtool.</desc>
    <defs>
        <rect id="path-1" x="0" y="0" width="30" height="30"></rect>
        <rect id="path-3" x="0" y="0" width="30" height="30"></rect>
    </defs>
    <g id="design_zhilaya_pravki" stroke="none" stroke-width="1" fill="none" fill-rule="evenodd">
        <g id="состояния" transform="translate(-90.000000, -1914.000000)">
            <g id="ic_4_activ" transform="translate(90.000000, 1914.000000)">
                <g id="refrash">
                    <mask id="mask-2" fill="white">
                        <use xlink:href="#path-1"></use>
                    </mask>
                    <g id="Mask"></g>
                </g>
                <g id="Oval">
                    <mask id="mask-4" fill="white">
                        <use xlink:href="#path-3"></use>
                    </mask>
                    <g id="Mask"></g>
                    <circle fill="#6666FF" opacity="0.200000003" mask="url(#mask-4)" cx="12" cy="12" r="12"></circle>
                    <g id="Group" mask="url(#mask-4)" stroke="#000000" stroke-width="2">
                        <g transform="translate(4.000000, 4.000000)">
                            <path d="M11,22 C17.0751322,22 22,17.0751322 22,11 C22,4.92486775 17.0751322,0 11,0 C4.92486775,0 0,4.92486775 0,11 C0,17.0751322 4.92486775,22 11,22 Z" id="Oval" stroke-dasharray="2.5,2.799999952316284"></path>
                            <path d="M11,22 L11,22 C17.0751322,22 22,17.0751322 22,11 C22,4.92486775 17.0751322,0 11,0" id="Path"></path>
                            <path d="M11,6 L11,14" id="Line-3" stroke-linecap="square"></path>
                            <polyline id="Line-4" points="7 12 11 16 15 12"></polyline>
                        </g>
                    </g>
                </g>
            </g>
        </g>
    </g>
</svg>