<?xml version="1.0" encoding="UTF-8"?>
<svg width="24px" height="24px" viewBox="0 0 24 24" version="1.1" xmlns="http://www.w3.org/2000/svg" xmlns:xlink="http://www.w3.org/1999/xlink">
    <!-- Generator: sketchtool 53.2 (72643) - https://sketchapp.com -->
    <title>61CC8314-40A5-4935-9807-A6D99CB54C92</title>
    <desc>Created with sketchtool.</desc>
    <defs>
        <rect id="path-1" x="0" y="0" width="30" height="30"></rect>
        <rect id="path-3" x="0" y="0" width="30" height="30"></rect>
    </defs>
    <g id="design_zhilaya_pravki" stroke="none" stroke-width="1" fill="none" fill-rule="evenodd">
        <g id="состояния" transform="translate(-44.000000, -2028.000000)">
            <g id="ic_6" transform="translate(40.000000, 2024.000000)">
                <g id="refrash">
                    <mask id="mask-2" fill="white">
                        <use xlink:href="#path-1"></use>
                    </mask>
                    <g id="Mask"></g>
                </g>
                <g id="Oval">
                    <mask id="mask-4" fill="white">
                        <use xlink:href="#path-3"></use>
                    </mask>
                    <g id="Mask"></g>
                </g>
                <g id="Group-3" opacity="0.200000003" transform="translate(4.000000, 4.000000)">
                    <g id="Group" fill="#000000">
                        <path d="M14,20 L14,22 L2,22 C0.8954305,22 1.3527075e-16,21.1045695 0,20 L0,2 C-1.3527075e-16,0.8954305 0.8954305,2.02906125e-16 2,0 L16,0 C17.1045695,-2.02906125e-16 18,0.8954305 18,2 L18,11 L16,11 L16,2 L2,2 L2,20 L14,20 Z" id="Combined-Shape" fill-rule="nonzero"></path>
                        <rect id="Rectangle" x="4" y="4" width="10" height="2"></rect>
                        <rect id="Rectangle" x="4" y="8" width="2" height="2"></rect>
                        <rect id="Rectangle-Copy-3" x="4" y="12" width="2" height="2"></rect>
                        <rect id="Rectangle-Copy-6" x="4" y="16" width="2" height="2"></rect>
                        <rect id="Rectangle-Copy" x="8" y="8" width="2" height="2"></rect>
                        <rect id="Rectangle-Copy-4" x="8" y="12" width="2" height="2"></rect>
                        <rect id="Rectangle-Copy-7" x="8" y="16" width="2" height="2"></rect>
                        <rect id="Rectangle-Copy-2" x="12" y="8" width="2" height="2"></rect>
                        <rect id="Rectangle-Copy-5" x="12" y="12" width="2" height="2"></rect>
                        <rect id="Rectangle-Copy-8" x="12" y="16" width="2" height="2"></rect>
                    </g>
                    <g id="Group-2" transform="translate(16.000000, 13.000000)">
                        <rect id="Rectangle" fill="#000000" x="2" y="0" width="2" height="11"></rect>
                        <path d="M3,1 L3,5 L5,5 C6.1045695,5 7,4.1045695 7,3 C7,1.8954305 6.1045695,1 5,1 L3,1 Z" id="Rectangle" stroke="#000000" stroke-width="2"></path>
                        <rect id="Rectangle" fill="#000000" x="0" y="4" width="2" height="2"></rect>
                        <rect id="Rectangle-Copy-9" fill="#000000" x="0" y="7" width="6" height="2"></rect>
                    </g>
                </g>
            </g>
        </g>
    </g>
</svg>