<?xml version="1.0" encoding="UTF-8"?>
<svg width="22px" height="23px" viewBox="0 0 22 23" version="1.1" xmlns="http://www.w3.org/2000/svg" xmlns:xlink="http://www.w3.org/1999/xlink">
    <!-- Generator: sketchtool 53.2 (72643) - https://sketchapp.com -->
    <title>2B154D4A-AB9E-4B57-A158-E772D15F1F5D</title>
    <desc>Created with sketchtool.</desc>
    <defs>
        <rect id="path-1" x="0" y="0" width="30" height="30"></rect>
    </defs>
    <g id="design_zhilaya_pravki" stroke="none" stroke-width="1" fill="none" fill-rule="evenodd">
        <g id="состояния" transform="translate(-44.000000, -2137.000000)">
            <g id="ic_8" transform="translate(40.000000, 2134.000000)">
                <g id="refrash">
                    <mask id="mask-2" fill="white">
                        <use xlink:href="#path-1"></use>
                    </mask>
                    <g id="Mask"></g>
                    <g id="optimised-(2)" opacity="0.200000003" mask="url(#mask-2)" fill="#000000" fill-rule="nonzero">
                        <g transform="translate(4.000000, 3.000000)" id="Shape">
                            <path d="M4,0 L4,1 L0,1 L0,23 L22,23 L22,1 L18,1 L18,0 L16,0 L16,1 L6,1 L6,0 L4,0 Z M2,3 L4,3 L4,4 L6,4 L6,3 L16,3 L16,4 L18,4 L18,3 L20,3 L20,5 L2,5 L2,3 Z M2,7 L20,7 L20,21 L2,21 L2,7 Z M8,9 L8,11 L10,11 L10,9 L8,9 Z M12,9 L12,11 L14,11 L14,9 L12,9 Z M16,9 L16,11 L18,11 L18,9 L16,9 Z M4,13 L4,15 L6,15 L6,13 L4,13 Z M8,13 L8,15 L10,15 L10,13 L8,13 Z M12,13 L12,15 L14,15 L14,13 L12,13 Z M16,13 L16,15 L18,15 L18,13 L16,13 Z M4,17 L4,19 L6,19 L6,17 L4,17 Z M8,17 L8,19 L10,19 L10,17 L8,17 Z M12,17 L12,19 L14,19 L14,17 L12,17 Z"></path>
                        </g>
                    </g>
                </g>
            </g>
        </g>
    </g>
</svg>