<?xml version="1.0" encoding="UTF-8"?>
<svg width="22px" height="24px" viewBox="0 0 22 24" version="1.1" xmlns="http://www.w3.org/2000/svg" xmlns:xlink="http://www.w3.org/1999/xlink">
    <!-- Generator: sketchtool 53.2 (72643) - https://sketchapp.com -->
    <title>E5EF2DA1-71D4-4CE6-A744-215296A844B8</title>
    <desc>Created with sketchtool.</desc>
    <defs>
        <rect id="path-1" x="0" y="0" width="30" height="30"></rect>
        <rect id="path-3" x="0" y="0" width="30" height="30"></rect>
    </defs>
    <g id="design_zhilaya_pravki" stroke="none" stroke-width="1" fill="none" fill-rule="evenodd">
        <g id="состояния" transform="translate(-44.000000, -2192.000000)">
            <g id="ic_9" transform="translate(40.000000, 2189.000000)">
                <g id="refrash">
                    <mask id="mask-2" fill="white">
                        <use xlink:href="#path-1"></use>
                    </mask>
                    <g id="Mask"></g>
                </g>
                <g id="Oval">
                    <mask id="mask-4" fill="white">
                        <use xlink:href="#path-3"></use>
                    </mask>
                    <g id="Mask"></g>
                </g>
                <g id="optimised-(2)" opacity="0.200000003" transform="translate(4.000000, 3.000000)" fill="#000000">
                    <path d="M3,0 C1.355469,0 0,1.355469 0,3 L0,17 C0,18.644531 1.355469,20 3,20 L7,20 L7,21 C7,22.644531 8.355469,24 10,24 L22,24 L22,4 L15,4 L15,0 L3,0 Z M3,2 L13,2 L13,4 L10,4 C9.121094,4 8.332031,4.390625 7.78125,5 L4,5 L4,7 L7,7 L7,14 L3,14 C2.648438,14 2.316406,14.074219 2,14.1875 L2,3 C2,2.433594 2.433594,2 3,2 Z M10,6 L20,6 L20,18 L10,18 C9.648438,18 9.316406,18.074219 9,18.1875 L9,7 C9,6.433594 9.433594,6 10,6 Z M11,9 L11,11 L18,11 L18,9 L11,9 Z M3,16 L7,16 L7,18 L3,18 C2.433594,18 2,17.566406 2,17 C2,16.433594 2.433594,16 3,16 Z M10,20 L20,20 L20,22 L10,22 C9.433594,22 9,21.566406 9,21 C9,20.433594 9.433594,20 10,20 Z" id="Shape" fill-rule="nonzero"></path>
                </g>
            </g>
        </g>
    </g>
</svg>