<?xml version="1.0" encoding="UTF-8"?>
<svg width="21px" height="30px" viewBox="0 0 21 30" version="1.1" xmlns="http://www.w3.org/2000/svg" xmlns:xlink="http://www.w3.org/1999/xlink">
    <!-- Generator: sketchtool 53.2 (72643) - https://sketchapp.com -->
    <title>586775E7-66B8-4E48-BCC8-6F4FFA2A6368</title>
    <desc>Created with sketchtool.</desc>
    <g id="design_zhilaya_pravki" stroke="none" stroke-width="1" fill="none" fill-rule="evenodd">
        <g id="состояния" transform="translate(-140.000000, -1699.000000)" fill="#6666FF" fill-rule="nonzero">
            <g id="pin" transform="translate(140.000000, 1699.000000)">
                <path d="M10.5,0 C4.701,0 0,4.701 0,10.5 C0,16.449 6.606,25.23 9.339,28.6065 C9.939,29.3475 11.061,29.3475 11.661,28.6065 C14.394,25.23 21,16.449 21,10.5 C21,4.701 16.299,0 10.5,0 Z M10.5,14.25 C8.4285,14.25 6.75,12.5715 6.75,10.5 C6.75,8.4285 8.4285,6.75 10.5,6.75 C12.5715,6.75 14.25,8.4285 14.25,10.5 C14.25,12.5715 12.5715,14.25 10.5,14.25 Z" id="Shape"></path>
            </g>
        </g>
    </g>
</svg>